<svg width="305" height="305" viewBox="0 0 305 305" fill="none" xmlns="http://www.w3.org/2000/svg">
<path d="M174.642 207.625C174.452 208.625 173.392 209.185 172.632 209.735C148.312 227.425 87.9124 254.445 58.2824 256.305C54.1824 256.565 43.2624 256.815 39.9724 255.095C37.4024 253.745 30.1524 243.735 28.0824 240.795C2.70243 204.825 -6.83757 157.565 5.11243 114.805C14.7024 132.815 29.8124 147.675 45.5524 160.455C68.3124 178.925 94.0124 193.575 119.632 207.635H174.642V207.625Z" fill="black"/>
<path d="M111.772 5.54498C101.762 20.645 96.6025 38.595 93.2925 56.295C87.4925 87.415 86.7625 120.915 88.7725 152.405L115.122 199.405C90.2425 186.495 65.7625 171.615 44.3825 153.375C29.5425 140.715 14.2225 125.405 7.04248 106.975C21.4925 57.925 62.7125 19.035 111.762 5.54498H111.772Z" fill="black"/>
<path d="M258.473 43.695C243.923 42.845 229.653 45.975 215.813 50.065C182.103 60.015 149.543 78.505 120.113 97.335C110.753 110.205 103.903 129.835 94.4225 142.005C93.7725 142.835 93.6725 143.565 92.3125 143.255C92.5825 133.165 91.9525 123.005 92.2825 112.915C93.1925 84.755 96.5825 48.795 107.683 22.775C109.303 18.985 116.083 5.29498 119.293 3.69498C122.023 2.33498 137.523 0.534979 141.343 0.294979C184.493 -2.34502 228.223 12.785 258.473 43.695Z" fill="black"/>
<path d="M45.9026 260.775C63.7526 262.005 81.2226 257.555 97.9326 251.795C128.173 241.385 158.253 224.565 184.683 206.815L212.053 160.465L212.093 196.795C209.253 232.015 207.653 271.375 185.813 300.755C136.353 312.425 81.2626 297.345 45.8926 260.765L45.9026 260.775Z" fill="black"/>
<path d="M193.352 298.935C204.802 279.825 210.442 257.575 213.452 235.585C217.232 207.985 217.492 178.275 215.462 150.705L189.232 105.075C221.842 123.265 256.812 143.745 281.682 172.055C285.812 176.765 297.392 192.405 297.392 198.275C297.392 200.645 293.452 209.865 292.272 212.625C274.392 254.205 237.162 287.135 193.342 298.935H193.352Z" fill="black"/>
<path d="M129.732 96.855L158.162 79.995C184.232 66.095 228.462 45.845 258.132 48.175C259.772 48.305 263.062 48.705 264.422 49.365C266.072 50.165 274.642 61.365 276.302 63.685C301.222 98.435 310.902 146.145 300.412 187.835C300.162 188.835 301.082 189.995 299.282 189.675C286.412 165.885 264.772 147.685 243.002 132.175C224.332 118.885 204.292 107.485 184.012 96.855H129.742H129.732Z" fill="black"/>
</svg>
